<?xml version="1.0" encoding="utf-8"?>
<!-- Generator: Adobe Illustrator 22.1.0, SVG Export Plug-In . SVG Version: 6.00 Build 0)  -->
<svg version="1.1" id="Layer_1" xmlns="http://www.w3.org/2000/svg" xmlns:xlink="http://www.w3.org/1999/xlink" x="0px" y="0px"
	 viewBox="0 0 835.1 358" style="enable-background:new 0 0 835.1 358;" xml:space="preserve">
<style type="text/css">
	.st0{fill:none;stroke:#FFFFFF;stroke-width:8;stroke-linecap:round;stroke-linejoin:round;}
</style>
<title>Plane</title>
<path class="st0" d="M578.3,68.5c-4.5-2.7-9-5.4-13.4-8.1c-7.9-4.9-15.8-9.7-23.4-15.1c-1.6-0.9-2.7-2.3-3.3-4.1
	c0.7-0.7,1.6-1.1,2.5-1.2c0,0,83.1-5.5,120.9-11.3c20.5-3.1,142.9-18.1,142.9-18.1c3-0.3,6.2-1.3,8.8,1.4
	c-10.7,3.6-42.1,10.4-53,13.4c-11.7,3.2-23.5,6.4-35.2,9.5c-12,3.2-24,6.4-36,9.6c-10.9,2.9-21.8,5.8-32.8,8.7
	c-8.9,2.4-17.8,4.6-26.7,7.2c-9.8,2.8-19.7,5.3-29.3,8.7c-3.4,1.2-9,2-10.5,7.1s6.5,40.4,6.5,40.4c0.3,1.5,1.3,2.7,2.7,3.5
	c1.6,0.4,1.4-5.6,1.4-5.6c0.3-3.5,0.9-7,1.8-10.4c1.1-3.7,3.1-6.8,6.9-8.1c8.9-3.2,17.8-6.4,26.7-9.7c13.6-5.1,27.1-10.4,40.7-15.8
	c12.3-4.8,24.5-9.9,36.6-15c13.8-5.8,27.6-11.5,41.3-17.5c13.5-5.9,58.6-23.1,72.1-28.9c-0.3,1-0.9,1.8-1.8,2.5
	c-5.5,5.5-13.1,13.5-19,18.6c-7.6,6.5-15.3,12.9-23,19.3S767,62.3,759.2,68.7c-9.1,7.4-18.3,14.8-27.5,22.2
	c-12.5,10-25,20-37.5,29.9c-7.9,6.3-15.8,12.6-24.2,18.1c-2.2,1.5-4.5,2.7-6.9,3.7c-3.3,1.2-6.2,0.7-8.5-1.9
	c-4.7-5.2-10.6-12-15.3-17.2c-6.4-7.1-12.7-14.4-20.1-20.6c-1-0.8-2.1-1.6-3.3-2.2c-2.9-1.6-5.1-1-6.7,2s-2.2,6.1-3.3,9.1
	c-1.1,2.9-2.1,5.8-3.2,8.6c-1.2,3.1-2.3,6.2-3.7,9.2c-5.8,12.3-13.4,23.1-25,30.8c-8.9,6-18.8,9.6-29.1,12.2
	c-5.2,1.2-10.4,2.1-15.7,2.8c-3.8,0.5-7.6,0.5-11.4,0.9c-7.5,0.5-15.1,0.6-22.6,0.3c-7.5-0.1-14.9-0.5-22.4-1.1
	c-3-0.2-6.1-0.3-9.2-0.6c-4.1-0.4-8.2-0.6-12.2-1c-3.6-0.4-7.3-0.6-11-1s-7.1-0.7-10.6-1.1c-3.2-0.3-6.4-0.6-9.5-0.9
	c-3.5-0.4-7.1-0.8-10.6-1.1c-3.1-0.3-6.2-0.6-9.3-0.9c-3.5-0.4-7.1-0.7-10.6-1.1c-3-0.3-6.1-0.6-9.2-0.9c-4.1-0.4-8.2-0.7-12.2-1.2
	c-1.8-0.2-3.5-0.2-5.3-0.4c-4.3-0.5-8.5-0.5-12.8-0.9c-7.5-0.6-15.1-0.9-22.6-1.3c-7.9-0.5-15.8-0.5-23.6-0.2
	c-7.1,0.2-14.2,0.8-21.2,1.9c-6.3,0.8-12.6,2.2-18.7,4.2c-4.9,1.7-9.5,3.7-13.3,7.5c-4.7,4.7-4.9,9.8-2,15.3c2.3,4.4,5.9,7.9,9.8,11
	c10.8,8.9,23,15.8,34.6,23.6c7.1,4.9,14.3,9.7,20.5,15.7c4,3.8,7.6,7.8,9.9,13c2.9,6.5,1.6,12.2-2.7,17.5
	c-4.8,5.8-11.3,9.6-17.9,12.8c-10.4,4.8-21.1,8.8-32.1,12c-14.3,4.4-28.8,8.2-43.3,11.6c-16.8,4-33.6,7.5-50.5,11
	c-9.7,2-19.4,3.9-29.1,5.7c-9.3,1.7-18.6,3.2-27.9,4.9c-5.8,1-11.5,2.2-17.3,3.2c-6.8,1.2-13.6,2.1-20.3,3.3
	c-6.1,1-12.1,2.2-18.1,3.2c-6.2,1-12.5,1.9-18.7,2.9s-12.5,2.3-18.7,3.2c-5.6,0.8-11.2,1.8-16.9,2.6"/>
</svg>
